<?xml version="1.0" encoding="iso-8859-1"?>
<!-- Generator: Adobe Illustrator 19.0.0, SVG Export Plug-In . SVG Version: 6.00 Build 0)  -->
<svg version="1.1" id="Layer_1" xmlns="http://www.w3.org/2000/svg" xmlns:xlink="http://www.w3.org/1999/xlink" x="0px" y="0px"
	 viewBox="0 0 512 512" style="enable-background:new 0 0 512 512;" xml:space="preserve">
<g>
	<path style="fill:#314E55;" d="M483.069,246.117c-5.458,0-9.883,4.42-9.883,9.883c0,119.884-97.532,217.416-217.416,217.416
		c-85.102,0-161.123-48.857-196.845-125.281l51.323,22.846c4.985,2.249,10.828-0.01,13.048-5.009
		c2.22-4.98-0.024-10.819-5.009-13.038l-72.227-32.157c-5.004-2.258-10.824,0.019-13.048,5.009L0.856,398.013
		c-2.22,4.98,0.024,10.819,5.009,13.038c1.308,0.589,2.673,0.859,4.015,0.859c3.783,0,7.393-2.181,9.033-5.868l22.089-49.61
		c38.944,83.407,121.899,136.748,214.768,136.748c130.78,0,237.181-106.401,237.181-237.181
		C492.952,250.538,488.527,246.117,483.069,246.117z"/>
	<path style="fill:#314E55;" d="M506.135,100.533c-5.004-2.239-10.828,0.019-13.048,5.009l-22.395,50.298
		C431.807,72.215,348.912,18.819,255.771,18.819C124.991,18.819,18.59,125.22,18.59,256c0,5.462,4.425,9.883,9.883,9.883
		s9.883-4.42,9.883-9.883c0-119.884,97.532-217.416,217.416-217.416c84.985,0,160.684,48.484,196.535,124.524l-50.555-22.504
		c-4.989-2.258-10.828,0.019-13.048,5.009c-2.22,4.98,0.024,10.819,5.009,13.038l72.228,32.157c1.308,0.589,2.673,0.859,4.015,0.859
		c3.783,0,7.393-2.181,9.033-5.868l32.157-72.227C513.363,108.592,511.119,102.753,506.135,100.533z"/>
</g>
<g>
</g>
<g>
</g>
<g>
</g>
<g>
</g>
<g>
</g>
<g>
</g>
<g>
</g>
<g>
</g>
<g>
</g>
<g>
</g>
<g>
</g>
<g>
</g>
<g>
</g>
<g>
</g>
<g>
</g>
</svg>
